<svg width="108" height="47" viewBox="0 0 108 47" fill="none" xmlns="http://www.w3.org/2000/svg">
<path d="M26.2891 35V17.936C27.6171 17.808 28.9051 17.744 30.1531 17.744C31.8331 17.744 33.1771 18.136 34.1851 18.92C35.2091 19.704 35.7211 20.888 35.7211 22.472C35.7211 24.04 35.0251 25.336 33.6331 26.36C32.2571 27.368 30.6091 27.872 28.6891 27.872C28.6091 27.872 28.5211 27.872 28.4251 27.872V27.08C28.4891 27.08 28.5451 27.08 28.5931 27.08C30.1771 27.08 31.5531 26.664 32.7211 25.832C33.8891 25 34.4731 23.92 34.4731 22.592C34.4731 21.248 34.0651 20.28 33.2491 19.688C32.4331 19.08 31.3371 18.776 29.9611 18.776C29.2411 18.776 28.4011 18.808 27.4411 18.872V35H26.2891ZM40.2344 35V17.84H48.2024V18.848H41.3864V25.16H47.5544V26.144H41.3864V33.992H48.4664V35H40.2344ZM54.1822 20.576L54.2302 22.616V35H53.0782V17.696H53.6062L64.9102 30.728C65.6782 31.64 66.2702 32.368 66.6862 32.912C66.6222 32.144 66.5902 31.264 66.5902 30.272V17.84H67.7422V35.144H67.2142L55.6942 21.872C54.8942 20.96 54.3822 20.352 54.1582 20.048L54.1822 20.576ZM81.4942 19.352C80.3262 18.856 79.1662 18.608 78.0142 18.608C75.6782 18.608 74.5102 19.472 74.5102 21.2C74.5102 21.952 74.7742 22.656 75.3022 23.312C75.8302 23.952 76.4702 24.528 77.2222 25.04C77.9742 25.536 78.7262 26.048 79.4782 26.576C80.2302 27.104 80.8702 27.736 81.3982 28.472C81.9262 29.208 82.1902 30.008 82.1902 30.872C82.1902 32.328 81.7022 33.432 80.7262 34.184C79.7502 34.92 78.3982 35.288 76.6702 35.288C74.9582 35.288 73.4942 34.848 72.2782 33.968L72.8542 33.104C74.0062 33.856 75.2702 34.232 76.6462 34.232C78.0222 34.232 79.0782 33.96 79.8142 33.416C80.5502 32.856 80.9182 32.056 80.9182 31.016C80.9182 30.296 80.6542 29.616 80.1262 28.976C79.5982 28.32 78.9582 27.736 78.2062 27.224C77.4542 26.696 76.7022 26.16 75.9502 25.616C75.1982 25.072 74.5582 24.424 74.0302 23.672C73.5022 22.92 73.2382 22.112 73.2382 21.248C73.2382 20.112 73.6542 19.216 74.4862 18.56C75.3342 17.888 76.4702 17.552 77.8942 17.552C79.3342 17.552 80.6702 17.84 81.9022 18.416L81.4942 19.352ZM87.2032 35V17.84H95.1712V18.848H88.3552V25.16H94.5232V26.144H88.3552V33.992H95.4352V35H87.2032Z" fill="white"/>
<path d="M19.1642 37.32C18.5776 37.32 18.1376 37.2533 17.8442 37.12C17.5776 37.0133 17.3909 36.9067 17.2842 36.8C16.0042 35.44 14.6976 33.8667 13.3642 32.08C12.0576 30.2933 10.8042 28.3867 9.60422 26.36C8.37755 28.1733 7.17755 29.96 6.00422 31.72C4.85755 33.48 3.75089 35.2267 2.68422 36.96C2.63089 37.0667 2.48422 37.12 2.24422 37.12C2.05755 37.12 1.81755 37.04 1.52422 36.88C1.25755 36.7467 1.05755 36.56 0.924219 36.32C2.07089 34.1333 3.24422 31.9733 4.44422 29.84C5.64422 27.7067 6.87089 25.6267 8.12422 23.6C6.97755 21.44 5.97755 19.2 5.12422 16.88C4.29755 14.56 3.69755 12.2667 3.32422 10L4.36422 9.28L7.76422 11C7.95089 12.44 8.25755 13.92 8.68422 15.44C9.13755 16.96 9.68422 18.4933 10.3242 20.04C11.4176 18.3333 12.4976 16.6667 13.5642 15.04C14.6576 13.4133 15.7509 11.8267 16.8442 10.28L20.3242 9.48L21.4842 10.4C19.6976 12.5867 18.0042 14.76 16.4042 16.92C14.8042 19.0533 13.2576 21.1733 11.7642 23.28C12.8842 25.6267 14.1242 27.96 15.4842 30.28C16.8442 32.5733 18.2042 34.8 19.5642 36.96C19.5642 37.0667 19.5109 37.1467 19.4042 37.2C19.3242 37.28 19.2442 37.32 19.1642 37.32Z" fill="white"/>
<circle cx="104" cy="32" r="4" fill="white"/>
</svg>
