<svg width="232" height="101" viewBox="0 0 232 101" fill="none" xmlns="http://www.w3.org/2000/svg">
<path d="M48.8412 76V36.184C51.9399 35.8853 54.9452 35.736 57.8572 35.736C61.7772 35.736 64.9132 36.6507 67.2652 38.48C69.6546 40.3093 70.8492 43.072 70.8492 46.768C70.8492 50.4267 69.2252 53.4507 65.9772 55.84C62.7666 58.192 58.9212 59.368 54.4412 59.368C54.2546 59.368 54.0492 59.368 53.8252 59.368V57.52C53.9746 57.52 54.1052 57.52 54.2172 57.52C57.9132 57.52 61.1239 56.5493 63.8492 54.608C66.5746 52.6667 67.9372 50.1467 67.9372 47.048C67.9372 43.912 66.9852 41.6533 65.0812 40.272C63.1772 38.8533 60.6199 38.144 57.4092 38.144C55.7292 38.144 53.7692 38.2187 51.5292 38.368V76H48.8412ZM81.3803 76V35.96H99.9723V38.312H84.0683V53.04H98.4603V55.336H84.0683V73.648H100.588V76H81.3803ZM113.925 42.344L114.037 47.104V76H111.349V35.624H112.581L138.957 66.032C140.749 68.16 142.13 69.8587 143.101 71.128C142.952 69.336 142.877 67.2827 142.877 64.968V35.96H145.565V76.336H144.333L117.453 45.368C115.586 43.24 114.392 41.8213 113.869 41.112L113.925 42.344ZM177.653 39.488C174.928 38.3307 172.221 37.752 169.533 37.752C164.082 37.752 161.357 39.768 161.357 43.8C161.357 45.5547 161.973 47.1973 163.205 48.728C164.437 50.2213 165.93 51.5653 167.685 52.76C169.44 53.9173 171.194 55.112 172.949 56.344C174.704 57.576 176.197 59.0507 177.429 60.768C178.661 62.4853 179.277 64.352 179.277 66.368C179.277 69.7653 178.138 72.3413 175.861 74.096C173.584 75.8133 170.429 76.672 166.397 76.672C162.402 76.672 158.986 75.6453 156.149 73.592L157.493 71.576C160.181 73.3307 163.13 74.208 166.341 74.208C169.552 74.208 172.016 73.5733 173.733 72.304C175.45 70.9973 176.309 69.1307 176.309 66.704C176.309 65.024 175.693 63.4373 174.461 61.944C173.229 60.4133 171.736 59.0507 169.981 57.856C168.226 56.624 166.472 55.3733 164.717 54.104C162.962 52.8347 161.469 51.3227 160.237 49.568C159.005 47.8133 158.389 45.928 158.389 43.912C158.389 41.2613 159.36 39.1707 161.301 37.64C163.28 36.072 165.93 35.288 169.253 35.288C172.613 35.288 175.73 35.96 178.605 37.304L177.653 39.488ZM190.974 76V35.96H209.566V38.312H193.662V53.04H208.054V55.336H193.662V73.648H210.182V76H190.974Z" fill="white"/>
<path d="M40.6281 79.838C39.3667 79.838 38.4207 79.6947 37.7901 79.408C37.2167 79.1787 36.8154 78.9493 36.5861 78.72C33.8341 75.796 31.0247 72.4133 28.1581 68.572C25.3487 64.7307 22.6541 60.6313 20.0741 56.274C17.4367 60.1727 14.8567 64.014 12.3341 67.798C9.86874 71.582 7.4894 75.3373 5.19607 79.064C5.0814 79.2933 4.76607 79.408 4.25007 79.408C3.84874 79.408 3.33274 79.236 2.70207 78.892C2.12874 78.6053 1.69874 78.204 1.41207 77.688C3.8774 72.9867 6.40007 68.3427 8.98007 63.756C11.5601 59.1693 14.1974 54.6973 16.8921 50.34C14.4267 45.696 12.2767 40.88 10.4421 35.892C8.66474 30.904 7.37474 25.9733 6.57207 21.1L8.80807 19.552L16.1181 23.25C16.5194 26.346 17.1787 29.528 18.0961 32.796C19.0707 36.064 20.2461 39.3607 21.6221 42.686C23.9727 39.0167 26.2947 35.4333 28.5881 31.936C30.9387 28.4387 33.2894 25.0273 35.6401 21.702L43.1221 19.982L45.6161 21.96C41.7747 26.6613 38.1341 31.334 34.6941 35.978C31.2541 40.5647 27.9287 45.1227 24.7181 49.652C27.1261 54.6973 29.7921 59.714 32.7161 64.702C35.6401 69.6327 38.5641 74.42 41.4881 79.064C41.4881 79.2933 41.3734 79.4653 41.1441 79.58C40.9721 79.752 40.8001 79.838 40.6281 79.838Z" fill="white"/>
<circle cx="224.5" cy="70.5" r="7.5" fill="white"/>
</svg>
